<svg width="78" height="70" viewBox="0 0 78 70" fill="none" xmlns="http://www.w3.org/2000/svg">
<g clip-path="url(#clip0_1_527)">
<path d="M25.7143 18.6667H31.7143L33.4286 22.5556L37.7143 23.3334L40.2857 21.0001L44.5714 21.7779L45.4286 24.1112L44.5714 27.2223L46.2857 29.5556H53.1429L54.8571 33.4445L52.2857 35.7779L53.1429 40.4445L57.4286 42.0001V46.6667L53.1429 48.2223L52.2857 52.889L54.8571 55.2223L53.1429 59.1112H46.2857L44.5714 62.2223L45.4286 66.1112L42.8571 67.6667L39.4286 66.889L37.7143 65.3334L33.4286 66.1112L31.7143 70.0001H25.7143L24 66.1112L19.7143 65.3334L17.1429 67.6667L12.8571 66.889L12 64.5556L12.8571 61.4445L11.1429 59.1112H4.28571L2.57143 55.2223L5.14286 52.889L4.28571 48.2223L0 46.6667V42.0001L4.28571 40.4445L5.14286 35.7779L2.57143 33.4445L4.28571 29.5556H11.1429L12.8571 26.4445L12 22.5556L14.5714 21.0001L18 21.7779L19.7143 23.3334L24 22.5556L25.7143 18.6667ZM24 31.1112L18.8571 34.2223L15.4286 38.1112L14.5714 39.6667V49.0001L18 53.6667L22.2857 56.7779L24 57.5556H33.4286L38.5714 54.4445L42 50.5556L42.8571 49.0001V39.6667L39.4286 35.0001L35.1429 31.889L33.4286 31.1112H24Z" fill="black"/>
<path d="M48.8572 0H54.8572L55.7143 4.66667L60.0001 3.88889L61.7143 2.33333L66.8572 3.11111V9.33333L70.2858 10.1111H74.5715L75.4286 14L72.8572 16.3333V20.2222L78.0001 21V25.6667L72.8572 26.4444V30.3333L75.4286 32.6667L74.5715 36.5556H67.7143L66.8572 40.4444V43.5556L61.7143 44.3333L59.1429 39.6667L55.7143 38.1111L57.4286 34.2222L62.5715 27.2222V19.4444L59.1429 14.7778L55.7143 13.2222H48.0001L42.8572 16.3333L37.7143 19.4444H35.1429L33.4286 16.3333L28.2858 14L29.1429 10.1111H36.0001L36.8572 6.22222V3.11111L42.0001 2.33333L45.4286 4.66667H48.0001L48.8572 0Z" fill="black"/>
<path d="M24.8571 39.6667H32.5714L34.2857 41.2223V47.4445L32.5714 49.0001H24.8571L23.1428 47.4445V41.2223L24.8571 39.6667Z" fill="black"/>
<path d="M48.8572 21H54.8572V25.6667H48.8572V21Z" fill="black"/>
</g>
<defs>
<clipPath id="clip0_1_527">
<rect width="78" height="70" fill="white"/>
</clipPath>
</defs>
</svg>
